inDegrees=no
num_controls=7
num_derivatives=13
num_iterations=139
num_multipliers=7
num_parameters=0
num_slacks=7
num_states=26
objective=0.477164
objective_accelerations=0.044214
objective_balance=0.003665
objective_effort=0.040365
objective_height=0.383258
objective_ligament=0.005662
solver_duration=1958.142855
status=Solve_Succeeded
success=true
DataType=double
version=3
OpenSimVersion=4.5
endheader
time	/jointset/ground_pelvis/pelvis_tilt/value	/jointset/ground_pelvis/pelvis_tx/value	/jointset/ground_pelvis/pelvis_ty/value	/jointset/hip_l/hip_flexion_l/value	/jointset/hip_l/hip_adduction_l/value	/jointset/hip_l/hip_rotation_l/value	/jointset/back/lumbar_extension/value	/jointset/patellofemoral_l/patellar_flexion_l/value	/jointset/knee_l/knee_flexion_l/value	/jointset/knee_l/knee_adduction_l/value	/jointset/knee_l/knee_rotation_l/value	/jointset/ankle_l/ankle_angle_l/value	/jointset/subtalar_l/subtalar_angle_l/value	/jointset/ground_pelvis/pelvis_tilt/speed	/jointset/ground_pelvis/pelvis_tx/speed	/jointset/ground_pelvis/pelvis_ty/speed	/jointset/hip_l/hip_flexion_l/speed	/jointset/hip_l/hip_adduction_l/speed	/jointset/hip_l/hip_rotation_l/speed	/jointset/back/lumbar_extension/speed	/jointset/patellofemoral_l/patellar_flexion_l/speed	/jointset/knee_l/knee_flexion_l/speed	/jointset/knee_l/knee_adduction_l/speed	/jointset/knee_l/knee_rotation_l/speed	/jointset/ankle_l/ankle_angle_l/speed	/jointset/subtalar_l/subtalar_angle_l/speed	/forceset/tau_hip_flexion_l	/forceset/tau_hip_adduction_l	/forceset/tau_hip_rotation_l	/forceset/tau_knee_flexion_l	/forceset/tau_ankle_angle_l	/forceset/tau_subtalar_angle_l	/forceset/tau_lumbar_extension	lambda_cid13_p0	lambda_cid13_p1	lambda_cid13_p2	lambda_cid13_p3	lambda_cid13_p4	lambda_cid13_p5	lambda_cid14_p0	/jointset/ground_pelvis/pelvis_tilt/accel	/jointset/ground_pelvis/pelvis_tx/accel	/jointset/ground_pelvis/pelvis_ty/accel	/jointset/hip_l/hip_flexion_l/accel	/jointset/hip_l/hip_adduction_l/accel	/jointset/hip_l/hip_rotation_l/accel	/jointset/back/lumbar_extension/accel	/jointset/patellofemoral_l/patellar_flexion_l/accel	/jointset/knee_l/knee_flexion_l/accel	/jointset/knee_l/knee_adduction_l/accel	/jointset/knee_l/knee_rotation_l/accel	/jointset/ankle_l/ankle_angle_l/accel	/jointset/subtalar_l/subtalar_angle_l/accel	gamma_cid13_p0	gamma_cid13_p1	gamma_cid13_p2	gamma_cid13_p3	gamma_cid13_p4	gamma_cid13_p5	gamma_cid14_p0
1	-0.106877672573568	-0.05917610111027071	0.6830966118901945	1.32280828828143	-0.3280856337673259	0.07170498793214582	-0.9599308463611517	1.395919479931753	1.395919479931806	-0.06618931930992634	-0.1745296235754229	0.2775110299903887	0.0641305717339451	0.1038153375687284	0.02571012031329548	0.0694425213298127	-0.297557219360158	-0.007166946234732563	-0.06484006071165201	-2.869444135300732e-05	-0.1586393878906137	-0.1586393878906135	-0.001420434634190519	-1.718543972942549e-05	0.0264658000392831	0.003238226754245123	-0.3702559837549085	0.01456400514164592	0.00133571671757723	-0.3773987568237929	0.04059909203852222	0.02697414708600837	0.4238299812682627	-38.09566261336258	-4.186475729383462	-0.7670502040831689	13.70502599827305	-798.7827078884397	-71.0751188811592	-0.04160352801654071	0.8195425765165684	-0.01348432176811772	1.532397334101619	-4.932473587791129	-0.1259626914751103	-1.660549130287921	-0.0128839147923944	-4.970723410276458	-4.970723410276828	-0.3428788117607895	-0.01731407225776281	-1.210608692014194	-0.671616753566373	-8.883092896258974e-09	2.030828897157383e-08	6.368649417765142e-08	6.38070300058374e-09	-2.334539049734134e-08	1.245754962535129e-07	-1.657766954820765e-08
1.01	-0.1057989213824939	-0.05891961397313158	0.6838674480934596	1.319586939596255	-0.328162844413029	0.0709727344878531	-0.9599310636331094	1.394084901238017	1.394084901238019	-0.06621875103924252	-0.1745297220943657	0.277715267551872	0.06413043980668302	0.1119343795120866	0.02559415475841023	0.08471406870424561	-0.346693824711641	-0.008265675627853214	-0.08160348065631388	9.424807497599626e-06	-0.2082716689760455	-0.2082716689760479	-0.004464296175766082	-2.904950424452286e-06	0.01436890078145163	-0.003257710803072214	-0.3695086861511713	0.01475192132433507	0.001260838921672364	-0.3771629848335298	0.04045864974029896	0.02711688072485883	0.4235186898879326	-38.10632362055019	-4.26017646693902	-0.7397906782707736	13.56910656875979	-798.4601359776743	-71.14871085501611	-0.04163798335036546	0.8080048478302538	-0.009622501942132206	1.522929693383634	-4.901452896737056	-0.1004096062876576	-1.683183733267862	0.01578757829774902	-4.958773639734157	-4.958773639734315	-0.2849084158483384	0.01076367264290636	-1.211152453605295	-0.6375599683499571	-1.630561425474247e-08	1.344153919994911e-08	9.24183409503529e-08	1.50319158127621e-08	-3.069023298115158e-08	1.434718426396394e-07	-2.261831615303742e-08
1.02	-0.1046389958030691	-0.05866408045746003	0.6847906790213227	1.315874785079998	-0.3282507586612729	0.07007305778277709	-0.9599301741672386	1.391754141097015	1.391754141096958	-0.06627857510207073	-0.1745296848958117	0.2777981517385896	0.06406555296154072	0.1200502152388428	0.02551939601977711	0.09992146624946376	-0.3957183855795326	-0.009307666743262942	-0.09832471286947715	0.0001926533992975567	-0.2578756773437823	-0.2578756773437857	-0.007498901337035712	9.95806361162507e-06	0.00219512508611346	-0.00971275682181125	-0.3687613885473767	0.01493983750704253	0.001185961125746842	-0.3769272128432627	0.04031820744207083	0.02725961436373191	0.4232073985076533	-38.12852879515115	-4.330417542559748	-0.7147257947881318	13.49176744625349	-798.2843022309022	-71.19752112761807	-0.0416725687745575	0.8189013331961682	-0.00524295851770397	1.519567368258666	-4.910064691072831	-0.1146150359329185	-1.652111583988195	0.01613795379722114	-4.965068866737452	-4.965068866737533	-0.3410275356996017	-0.0175975673115322	-1.225983979515553	-0.6634384458507141	-2.349447885744995e-08	4.306900784194137e-09	1.205609541440088e-07	2.182801298082784e-08	-3.750001160385693e-08	1.616994448806001e-07	-2.903855102712604e-08
1.03	-0.1033984706108918	-0.05840882816832241	0.6858656209551206	1.311673271592641	-0.3283487864012469	0.06900645850924424	-0.9599245304746522	1.388927581938322	1.388927581938264	-0.0663687119506844	-0.1745294852510132	0.2777592530221677	0.06393651375962114	0.1280009853041731	0.02556427657532243	0.1150523579606175	-0.4445353090383349	-0.0102890435760105	-0.1149843885386159	0.001179307084905919	-0.3074225242190122	-0.3074225242190315	-0.01052859414136878	2.76059856527873e-05	-0.009954137030069147	-0.01607295124516143	-0.369664884012062	0.0152779531624016	0.001067598114423111	-0.3760902901815704	0.03991796428610975	0.02753736584590308	0.4248421863350917	-38.26584073966544	-4.456856750689647	-0.6604673418450413	12.9765163635001	-799.0783833490452	-71.2491510602853	-0.04171287776018761	0.7750866837372449	0.0143415398128565	1.507656788005429	-4.860159577049126	-0.08858711128192066	-1.671310884997361	0.1764123677441685	-4.947440940058057	-4.947440940060378	-0.2839772051016796	0.01112582131759618	-1.206289524402744	-0.6190066262920596	-3.068095920754746e-08	-4.850879352419325e-09	1.486975547501235e-07	2.860518039742303e-08	-4.430433039124488e-08	1.799202232017121e-07	-3.546265925090098e-08
